<svg width="480" height="123" viewBox="0 0 480 123" fill="none" xmlns="http://www.w3.org/2000/svg">
<g opacity="0.5">
<path d="M6.48655 82.6032H0V121.522H7.51359V96.1168L25.3516 121.522H31.8381V82.6032H24.3786V108.009L6.48655 82.6032Z" fill="#372B43"/>
<path d="M57.1931 122.333C62.5986 122.333 67.95 120.279 71.5176 115.955C74.7068 112.063 75.9501 107.468 76.0582 102.063C75.9501 96.8736 74.8149 92.1168 71.5176 88.1167C68.0581 83.9005 62.8148 81.7924 57.1931 81.7924C51.5714 81.7924 46.2741 83.8464 42.8687 88.1167C39.7335 91.9006 38.3281 96.8736 38.3281 102.063C38.3281 107.252 39.7335 112.171 42.8687 115.955C46.22 120.171 51.6255 122.333 57.1931 122.333ZM57.1931 115.414C53.8417 115.468 50.5985 114.117 48.7066 111.522C46.7065 108.928 46.1119 105.468 46.0579 102.063C46.1119 98.6574 46.7065 95.1438 48.7066 92.6033C50.5985 90.0087 53.8417 88.6573 57.1931 88.7113C60.5445 88.6573 63.7337 90.0087 65.6797 92.6033C67.6257 95.1438 68.2743 98.6574 68.2743 102.063C68.2743 105.468 67.6257 108.928 65.6797 111.522C63.7337 114.117 60.5445 115.468 57.1931 115.414Z" fill="#372B43"/>
<path d="M109.596 82.6032H77.7035V89.9546H89.9738V121.522H97.3253V89.9546H109.596V82.6032Z" fill="#372B43"/>
<path d="M136.549 121.522H144.116L132.224 82.6032H121.251L109.359 121.522H116.927L118.765 115.468H134.657L136.549 121.522ZM120.873 108.549L126.657 89.5222L132.549 108.549H120.873Z" fill="#372B43"/>
<path d="M174.897 102.549C174.302 101.793 173.654 101.09 172.951 100.441C173.005 100.387 173.113 100.279 173.167 100.171C174.627 98.3331 175.492 95.9547 175.438 93.6844C175.383 91.306 174.627 88.9276 173.167 87.0897C171.87 85.1978 169.87 83.7924 167.6 83.1437C166.518 82.7653 165.383 82.6032 164.248 82.6032H148.735V121.522H165.167C166.41 121.522 167.654 121.252 168.843 120.928C171.221 120.171 173.383 118.712 174.897 116.712C176.41 114.603 177.221 112.117 177.221 109.63C177.221 107.036 176.41 104.549 174.897 102.549ZM164.194 89.4681C165.059 89.4681 166.356 90.1708 166.897 90.8735C167.6 91.6303 167.924 92.6573 167.978 93.6844C168.032 94.6033 167.654 95.5222 167.059 96.2249C166.464 96.9817 165.383 97.5763 164.627 97.7385H156.194V89.4681H164.194ZM169.816 109.63C169.762 111.036 169.275 112.387 168.194 113.306C167.329 114.063 166.248 114.603 165.059 114.603H156.194V104.657H165.059C166.302 104.657 167.329 104.928 168.41 106.009C169.329 106.982 169.87 108.333 169.816 109.63Z" fill="#372B43"/>
</g>
<g opacity="0.5">
<path d="M271.632 0.810818H265.145V39.7301H272.659V14.3245L290.497 39.7301H296.984V0.810818H289.524V26.2165L271.632 0.810818Z" fill="#372B43"/>
<path d="M322.339 40.5409C327.744 40.5409 333.095 38.4869 336.663 34.1625C339.852 30.2706 341.095 25.6759 341.204 20.2705C341.095 15.0812 339.96 10.3244 336.663 6.32439C333.203 2.10813 327.96 0 322.339 0C316.717 0 311.419 2.05407 308.014 6.32439C304.879 10.1082 303.473 15.0812 303.473 20.2705C303.473 25.4597 304.879 30.3787 308.014 34.1625C311.365 38.3787 316.771 40.5409 322.339 40.5409ZM322.339 33.6219C318.987 33.676 315.744 32.3246 313.852 29.73C311.852 27.1354 311.257 23.6759 311.203 20.2705C311.257 16.865 311.852 13.3515 313.852 10.8109C315.744 8.2163 318.987 6.86493 322.339 6.91899C325.69 6.86493 328.879 8.2163 330.825 10.8109C332.771 13.3515 333.42 16.865 333.42 20.2705C333.42 23.6759 332.771 27.1354 330.825 29.73C328.879 32.3246 325.69 33.676 322.339 33.6219Z" fill="#372B43"/>
<path d="M374.741 0.810818H342.849V8.16224H355.119V39.7301H362.471V8.16224H374.741V0.810818Z" fill="#372B43"/>
<path d="M401.694 39.7301H409.262L397.37 0.810818H386.397L374.505 39.7301H382.072L383.91 33.676H399.802L401.694 39.7301ZM386.018 26.757L391.802 7.72981L397.694 26.757H386.018Z" fill="#372B43"/>
<path d="M440.042 20.757C439.448 20.0002 438.799 19.2975 438.096 18.6488C438.15 18.5948 438.259 18.4867 438.313 18.3786C439.772 16.5407 440.637 14.1623 440.583 11.892C440.529 9.5136 439.772 7.13521 438.313 5.29735C437.015 3.40544 435.015 2.00002 432.745 1.35137C431.664 0.972983 430.529 0.810818 429.394 0.810818H413.88V39.7301H430.313C431.556 39.7301 432.799 39.4598 433.988 39.1355C436.367 38.3787 438.529 36.9193 440.042 34.9193C441.556 32.8111 442.367 30.3246 442.367 27.8381C442.367 25.2435 441.556 22.757 440.042 20.757ZM429.34 7.67575C430.204 7.67575 431.502 8.37846 432.042 9.08117C432.745 9.83793 433.069 10.865 433.123 11.892C433.177 12.8109 432.799 13.7299 432.204 14.4326C431.61 15.1893 430.529 15.7839 429.772 15.9461H421.339V7.67575H429.34ZM434.961 27.8381C434.907 29.2435 434.421 30.5949 433.34 31.5138C432.475 32.2706 431.394 32.8111 430.204 32.8111H421.339V22.8651H430.204C431.448 22.8651 432.475 23.1354 433.556 24.2165C434.475 25.1894 435.015 26.5408 434.961 27.8381Z" fill="#372B43"/>
</g>
<g opacity="0.5">
<path d="M308.451 71.7304H301.964V110.65H309.478V85.244L327.316 110.65H333.802V71.7304H326.343V97.136L308.451 71.7304Z" fill="#372B43"/>
<path d="M359.157 111.46C364.563 111.46 369.914 109.406 373.482 105.082C376.671 101.19 377.914 96.5955 378.022 91.19C377.914 86.0008 376.779 81.244 373.482 77.2439C370.022 73.0277 364.779 70.9196 359.157 70.9196C353.536 70.9196 348.238 72.9736 344.833 77.2439C341.698 81.0278 340.292 86.0008 340.292 91.19C340.292 96.3793 341.698 101.298 344.833 105.082C348.184 109.298 353.59 111.46 359.157 111.46ZM359.157 104.542C355.806 104.596 352.563 103.244 350.671 100.65C348.671 98.055 348.076 94.5955 348.022 91.19C348.076 87.7846 348.671 84.271 350.671 81.7305C352.563 79.1359 355.806 77.7845 359.157 77.8385C362.509 77.7845 365.698 79.1359 367.644 81.7305C369.59 84.271 370.239 87.7846 370.239 91.19C370.239 94.5955 369.59 98.055 367.644 100.65C365.698 103.244 362.509 104.596 359.157 104.542Z" fill="#372B43"/>
<path d="M411.56 71.7304H379.668V79.0818H391.938V110.65H399.289V79.0818H411.56V71.7304Z" fill="#372B43"/>
<path d="M438.513 110.65H446.08L434.188 71.7304H423.215L411.323 110.65H418.891L420.729 104.596H436.621L438.513 110.65ZM422.837 97.6766L428.621 78.6494L434.513 97.6766H422.837Z" fill="#372B43"/>
<path d="M476.861 91.6765C476.267 90.9198 475.618 90.217 474.915 89.5684C474.969 89.5143 475.077 89.4062 475.131 89.2981C476.591 87.4603 477.456 85.0819 477.402 82.8116C477.348 80.4332 476.591 78.0548 475.131 76.2169C473.834 74.325 471.834 72.9196 469.564 72.2709C468.483 71.8925 467.348 71.7304 466.212 71.7304H450.699V110.65H467.131C468.375 110.65 469.618 110.379 470.807 110.055C473.185 109.298 475.348 107.839 476.861 105.839C478.375 103.731 479.186 101.244 479.186 98.7577C479.186 96.163 478.375 93.6765 476.861 91.6765ZM466.158 78.5953C467.023 78.5953 468.321 79.298 468.861 80.0007C469.564 80.7575 469.888 81.7845 469.942 82.8116C469.996 83.7305 469.618 84.6494 469.023 85.3521C468.429 86.1089 467.348 86.7035 466.591 86.8657H458.158V78.5953H466.158ZM471.78 98.7577C471.726 100.163 471.24 101.514 470.158 102.433C469.294 103.19 468.212 103.731 467.023 103.731H458.158V93.7846H467.023C468.267 93.7846 469.294 94.0549 470.375 95.136C471.294 96.109 471.834 97.4604 471.78 98.7577Z" fill="#372B43"/>
</g>
<g opacity="0.5">
<path d="M51.46 0.810818H44.9734V39.7301H52.487V14.3245L70.325 39.7301H76.8116V0.810818H69.3521V26.2165L51.46 0.810818Z" fill="#372B43"/>
<path d="M102.167 40.5409C107.572 40.5409 112.923 38.4869 116.491 34.1625C119.68 30.2706 120.924 25.6759 121.032 20.2705C120.924 15.0812 119.788 10.3244 116.491 6.32439C113.032 2.10813 107.788 0 102.167 0C96.5449 0 91.2475 2.05407 87.8421 6.32439C84.7069 10.1082 83.3015 15.0812 83.3015 20.2705C83.3015 25.4597 84.7069 30.3787 87.8421 34.1625C91.1935 38.3787 96.5989 40.5409 102.167 40.5409ZM102.167 33.6219C98.8152 33.676 95.5719 32.3246 93.68 29.73C91.68 27.1354 91.0854 23.6759 91.0313 20.2705C91.0854 16.865 91.68 13.3515 93.68 10.8109C95.5719 8.2163 98.8152 6.86493 102.167 6.91899C105.518 6.86493 108.707 8.2163 110.653 10.8109C112.599 13.3515 113.248 16.865 113.248 20.2705C113.248 23.6759 112.599 27.1354 110.653 29.73C108.707 32.3246 105.518 33.676 102.167 33.6219Z" fill="#372B43"/>
<path d="M154.569 0.810818H122.677V8.16224H134.947V39.7301H142.299V8.16224H154.569V0.810818Z" fill="#372B43"/>
<path d="M181.522 39.7301H189.09L177.198 0.810818H166.225L154.333 39.7301H161.9L163.738 33.676H179.63L181.522 39.7301ZM165.846 26.757L171.63 7.72981L177.522 26.757H165.846Z" fill="#372B43"/>
<path d="M219.87 20.757C219.276 20.0002 218.627 19.2975 217.924 18.6488C217.979 18.5948 218.087 18.4867 218.141 18.3786C219.6 16.5407 220.465 14.1623 220.411 11.892C220.357 9.5136 219.6 7.13521 218.141 5.29735C216.843 3.40544 214.843 2.00002 212.573 1.35137C211.492 0.972983 210.357 0.810818 209.222 0.810818H193.708V39.7301H210.141C211.384 39.7301 212.627 39.4598 213.816 39.1355C216.195 38.3787 218.357 36.9193 219.87 34.9193C221.384 32.8111 222.195 30.3246 222.195 27.8381C222.195 25.2435 221.384 22.757 219.87 20.757ZM209.168 7.67575C210.032 7.67575 211.33 8.37846 211.87 9.08117C212.573 9.83793 212.897 10.865 212.951 11.892C213.005 12.8109 212.627 13.7299 212.032 14.4326C211.438 15.1893 210.357 15.7839 209.6 15.9461H201.168V7.67575H209.168ZM214.789 27.8381C214.735 29.2435 214.249 30.5949 213.168 31.5138C212.303 32.2706 211.222 32.8111 210.032 32.8111H201.168V22.8651H210.032C211.276 22.8651 212.303 23.1354 213.384 24.2165C214.303 25.1894 214.843 26.5408 214.789 27.8381Z" fill="#372B43"/>
</g>
</svg>
