<svg width="187" height="62" fill="none" xmlns="http://www.w3.org/2000/svg"><path d="M65.18 18.325c0 1.078-.34 1.937-1.024 2.566-.765.757-1.777 1.142-3.007 1.142-1.189 0-2.186-.385-3.02-1.155-.834-.77-1.244-1.732-1.244-2.861 0-1.142.41-2.092 1.244-2.862.834-.77 1.831-1.154 3.02-1.154.588 0 1.148.102 1.681.32.533.218.957.5 1.285.86l-.724.68c-.547-.603-1.285-.911-2.242-.911-.86 0-1.612.282-2.241.86-.629.564-.943 1.309-.943 2.22 0 .91.314 1.655.943 2.22.629.564 1.38.86 2.241.86.916 0 1.681-.283 2.296-.86.397-.373.629-.899.684-1.566h-2.98v-.937h3.977c.028.206.055.398.055.578ZM71.481 15.117H67.75v2.438h3.362v.924H67.75v2.438h3.731v.95h-4.783v-7.7h4.783v.95ZM75.922 21.866H74.87v-6.749h-2.296v-.95h5.63v.95H75.91v6.75h.013ZM82.29 21.866v-7.698h1.053v7.698h-1.052ZM88.018 21.866h-1.052v-6.749H84.67v-.95h5.63v.95h-2.296v6.75h.014ZM100.973 20.865c-.806.783-1.804 1.168-3.006 1.168-1.203 0-2.2-.385-3.007-1.168-.806-.783-1.203-1.732-1.203-2.849 0-1.116.397-2.078 1.203-2.848.806-.783 1.804-1.168 3.007-1.168 1.189 0 2.186.385 3.006 1.168.807.782 1.217 1.732 1.217 2.848-.014 1.13-.41 2.079-1.217 2.849Zm-5.234-.642c.601.578 1.353.86 2.228.86.874 0 1.626-.282 2.227-.86.602-.577.916-1.308.916-2.207 0-.898-.301-1.63-.916-2.207-.601-.577-1.353-.872-2.227-.872-.875 0-1.627.282-2.228.86-.601.59-.916 1.321-.916 2.22 0 .898.315 1.629.916 2.206ZM103.666 21.866v-7.698h1.285l3.991 5.992h.041l-.041-1.489v-4.503h1.052v7.698h-1.093l-4.169-6.274h-.041l.041 1.488v4.786h-1.066Z" fill="#fff" stroke="#fff" stroke-width=".257" stroke-miterlimit="10"/><path d="M93.498 33.093c-3.212 0-5.836 2.297-5.836 5.453 0 3.144 2.624 5.454 5.836 5.454s5.836-2.31 5.836-5.454c0-3.156-2.624-5.453-5.836-5.453Zm0 8.764c-1.763 0-3.28-1.36-3.28-3.31 0-1.964 1.517-3.311 3.28-3.311s3.28 1.347 3.28 3.31c0 1.95-1.53 3.31-3.28 3.31Zm-12.737-8.764c-3.212 0-5.836 2.297-5.836 5.453 0 3.144 2.624 5.454 5.836 5.454 3.211 0 5.835-2.31 5.835-5.454 0-3.156-2.624-5.453-5.835-5.453Zm0 8.764c-1.763 0-3.28-1.36-3.28-3.31 0-1.964 1.517-3.311 3.28-3.311s3.28 1.347 3.28 3.31c0 1.95-1.517 3.31-3.28 3.31Zm-15.143-7.083v2.31h5.904c-.178 1.295-.642 2.258-1.34 2.912-.86.808-2.2 1.694-4.55 1.694-3.636 0-6.478-2.746-6.478-6.16 0-3.412 2.842-6.158 6.478-6.158 1.954 0 3.39.718 4.441 1.655l1.736-1.63c-1.476-1.321-3.43-2.335-6.19-2.335-4.976 0-9.158 3.798-9.158 8.482 0 4.67 4.182 8.481 9.157 8.481 2.692 0 4.715-.821 6.3-2.374 1.627-1.527 2.132-3.682 2.132-5.415 0-.538-.04-1.039-.136-1.45h-8.296v-.012Zm61.924 1.796c-.479-1.219-1.955-3.477-4.975-3.477-2.993 0-5.48 2.207-5.48 5.453 0 3.054 2.46 5.454 5.767 5.454 2.665 0 4.209-1.527 4.838-2.413l-1.982-1.244c-.656.91-1.558 1.514-2.856 1.514-1.298 0-2.228-.565-2.815-1.655l7.776-3.016-.273-.616Zm-7.927 1.822c-.068-2.104 1.736-3.182 3.034-3.182 1.011 0 1.872.475 2.159 1.155l-5.193 2.027Zm-6.314 5.287h2.556v-16.04h-2.556v16.04Zm-4.182-9.367h-.096c-.574-.642-1.667-1.22-3.061-1.22-2.911 0-5.576 2.4-5.576 5.48 0 3.054 2.665 5.44 5.576 5.44 1.38 0 2.487-.577 3.061-1.244h.082v.782c0 2.092-1.189 3.208-3.102 3.208-1.558 0-2.528-1.052-2.925-1.937l-2.227.872c.642 1.45 2.337 3.221 5.152 3.221 2.993 0 5.521-1.655 5.521-5.684v-9.804h-2.419v.886h.014Zm-2.938 7.545c-1.763 0-3.239-1.386-3.239-3.285 0-1.925 1.476-3.324 3.239-3.324 1.735 0 3.102 1.412 3.102 3.324.014 1.899-1.353 3.285-3.102 3.285Zm33.332-14.218h-6.108v16.04h2.555v-6.082h3.567c2.829 0 5.603-1.925 5.603-4.979 0-3.054-2.801-4.979-5.617-4.979Zm.055 7.725h-3.621v-5.505h3.621c1.913 0 2.993 1.489 2.993 2.746 0 1.258-1.08 2.759-2.993 2.759Zm15.771-2.297c-1.845 0-3.758.77-4.551 2.451l2.269.885c.478-.885 1.38-1.18 2.323-1.18 1.326 0 2.665.744 2.679 2.066v.166c-.465-.243-1.449-.615-2.665-.615-2.446 0-4.92 1.257-4.92 3.605 0 2.143 1.995 3.529 4.237 3.529 1.708 0 2.665-.719 3.252-1.566h.082v1.245h2.46v-6.146c.014-2.849-2.255-4.44-5.166-4.44Zm-.314 8.79c-.834 0-1.995-.398-1.995-1.36 0-1.232 1.448-1.707 2.706-1.707 1.12 0 1.653.231 2.323.539-.191 1.475-1.558 2.528-3.034 2.528Zm14.459-8.443-2.924 6.954h-.082l-3.034-6.954h-2.747l4.551 9.726-2.597 5.402h2.665l7.011-15.128h-2.843Zm-22.96 10.265h2.556v-16.04h-2.556v16.04Z" fill="#fff"/><path d="M14.642 14.86c-.397.397-.629 1.013-.629 1.796v28.383c0 .796.232 1.411.629 1.796l.095.09L31.67 31.04v-.385L14.737 14.769l-.095.09Z" fill="url('#paint0_linear_736_5806')"/><path d="m37.316 36.34-5.644-5.3v-.385l5.644-5.3.123.065 6.684 3.567c1.913 1.014 1.913 2.682 0 3.708l-6.683 3.567-.123.077Z" fill="url('#paint1_linear_736_5806')"/><path d="m37.439 36.275-5.768-5.427-17.028 15.988c.628.628 1.667.705 2.842.077L37.44 36.275Z" fill="url('#paint2_linear_736_5806')"/><path d="m37.438 25.433-19.967-10.65c-1.175-.63-2.214-.552-2.842.077L31.67 30.848l5.767-5.415Z" fill="url('#paint3_linear_736_5806')"/><path opacity=".2" d="M37.315 36.147 17.47 46.733c-1.107.59-2.105.552-2.734.013l-.095.09.095.09c.643.538 1.627.577 2.734-.013l19.966-10.65-.122-.116Z" fill="#000"/><path opacity=".12" d="M14.64 46.656c-.396-.398-.628-1.014-.628-1.797v.193c0 .795.232 1.411.629 1.796l.095-.09-.095-.102ZM44.122 32.516l-6.82 3.631.123.116 6.683-3.568c.957-.513 1.435-1.18 1.435-1.847-.068.603-.546 1.206-1.421 1.668Z" fill="#000"/><path opacity=".25" d="m17.471 14.963 26.65 14.217c.861.462 1.353 1.053 1.435 1.669 0-.668-.478-1.348-1.435-1.848l-26.65-14.218C15.558 13.77 14 14.617 14 16.67v.192c0-2.066 1.572-2.913 3.471-1.899Z" fill="#fff"/><rect x="1" y="1" width="185" height="60" rx="8" stroke="#fff"/><defs><linearGradient id="paint0_linear_736_5806" x1="30.166" y1="16.36" x2="8.675" y2="39.251" gradientUnits="userSpaceOnUse"><stop stop-color="#00A0FF"/><stop offset=".007" stop-color="#00A1FF"/><stop offset=".26" stop-color="#00BEFF"/><stop offset=".512" stop-color="#00D2FF"/><stop offset=".76" stop-color="#00DFFF"/><stop offset="1" stop-color="#00E3FF"/></linearGradient><linearGradient id="paint1_linear_736_5806" x1="46.616" y1="30.849" x2="13.546" y2="30.849" gradientUnits="userSpaceOnUse"><stop stop-color="#FFE000"/><stop offset=".409" stop-color="#FFBD00"/><stop offset=".775" stop-color="orange"/><stop offset="1" stop-color="#FF9C00"/></linearGradient><linearGradient id="paint2_linear_736_5806" x1="34.305" y1="33.794" x2="5.16" y2="64.835" gradientUnits="userSpaceOnUse"><stop stop-color="#FF3A44"/><stop offset="1" stop-color="#C31162"/></linearGradient><linearGradient id="paint3_linear_736_5806" x1="10.347" y1="5.411" x2="23.361" y2="19.272" gradientUnits="userSpaceOnUse"><stop stop-color="#32A071"/><stop offset=".069" stop-color="#2DA771"/><stop offset=".476" stop-color="#15CF74"/><stop offset=".801" stop-color="#06E775"/><stop offset="1" stop-color="#00F076"/></linearGradient></defs></svg>