<svg width="134" height="74" fill="none" xmlns="http://www.w3.org/2000/svg"><path d="M28.91 20.526c.115.5-.257 2.16-1.115 4.984-.172.565-1.103 3.48-2.793 8.746-1.225 3.845-2.046 6.585-2.461 8.219-.49 1.801-.945 4.007-1.363 6.617l-1.54 10.037c-.253 1.034-.632 1.927-1.136 2.68-.476.71-1 1.129-1.57 1.26-.464.105-.914-.055-1.35-.482-.399-.434-.724-1.205-.977-2.31-.927-4.069-1.523-8.494-1.788-13.276a700.55 700.55 0 0 1-.562-14.569c-1.987 5.446-3.664 10.52-5.032 15.225-1.425 4.942-2.385 9.047-2.88 12.313-.16 1.275-.323 2.532-.49 3.772-.355 2.07-.978 3.207-1.87 3.41-.667.04-1.09-.333-1.268-1.118-.285-1.25-.05-3.593.705-7.03l.908-3.924c1.067-4.373 2.63-9.535 4.69-15.485 2.154-6.197 3.894-10.498 5.223-12.903.711-1.326 1.406-2.067 2.084-2.221.75-.171 1.214.136 1.393.921.073.321.066.623-.02.905-.746 3.474-.856 8.755-.329 15.842.446 5.905 1.059 10.57 1.84 13.996.17-.902.593-2.913 1.27-6.033.578-2.572.998-4.6 1.26-6.087.569-2.608 1.076-4.825 1.523-6.654a194.237 194.237 0 0 1 1.854-7.18 164.872 164.872 0 0 1 2.183-6.973c.71-2.152 1.548-3.338 2.511-3.557.563-.166.93.125 1.1.875ZM37.886 28.446c.195.857-.047 1.85-.728 2.982-.653 1.087-1.3 1.704-1.943 1.85-.75.171-1.226-.19-1.43-1.081-.186-.821.043-1.793.687-2.916.645-1.123 1.289-1.758 1.931-1.904.785-.18 1.28.177 1.483 1.07Zm-3.219 11.32c.122.536.016 1.142-.317 1.818-.703 1.362-1.452 3.841-2.246 7.438-.802 3.562-1.172 5.974-1.11 7.236.063 1.262-.289 1.943-1.054 2.042-.286.065-.58-.074-.884-.418a2.707 2.707 0 0 1-.614-1.211c-.407-1.784-.147-4.434.778-7.948a49.495 49.495 0 0 1 3.026-8.46 5.59 5.59 0 0 1 .496-.79c.237-.279.516-.455.837-.528.587-.06.95.215 1.088.821ZM52.995 41.218c.285 1.25-.25 3.267-1.604 6.054-1.586 3.252-3.699 6.005-6.338 8.258-.612 2.917-1.227 5.404-1.847 7.46-.897 2.982-1.823 5.258-2.78 6.828-1.23 2.007-2.632 3.19-4.202 3.548-1.748.399-2.879-.526-3.391-2.774-.415-1.82.237-4.146 1.956-6.978 1.72-2.832 4.223-5.6 7.511-8.3.376-.987.622-1.72.738-2.196.194-.795.23-1.46.108-1.996-.59 1.036-1.21 1.853-1.862 2.452-.66.563-1.329.922-2.007 1.077-1.427.325-2.336-.368-2.727-2.081-.512-2.248.178-5.56 2.072-9.932 2.023-4.629 4.212-7.211 6.567-7.748.856-.196 1.595-.083 2.217.339.622.421 1.022 1.024 1.201 1.81.122.535.147 1.055.074 1.56-.045.46-.207.985-.485 1.574.606-.138.91-.039.912.299a237.148 237.148 0 0 0-1.97 5.686c-.671 1.992-.96 3.691-.864 5.096a26.854 26.854 0 0 0 3.66-5.677 448.923 448.923 0 0 0 2.355-4.986c.357-.081.592.128.706.627Zm-7.183-2.36c-.13-.57-.48-.791-1.051-.66-1 .227-2.283 1.927-3.85 5.1-1.668 3.383-2.315 5.896-1.94 7.538.187.82.601 1.157 1.244 1.01.642-.145 1.284-.705 1.926-1.677.76-1.112 1.515-2.823 2.264-5.134-.63.032-.967-.042-1.008-.22.425-.773.873-1.607 1.345-2.503.498-.94.843-1.9 1.032-2.882l.038-.572Zm-3.986 20.055c-1.25.284-2.718 1.745-4.407 4.383-1.716 2.681-2.431 4.646-2.147 5.895.065.285.247.507.546.664.298.157.608.2.93.126.963-.22 1.902-1.616 2.817-4.19a927.45 927.45 0 0 1 2.26-6.878ZM69.872 37.877c.333 1.463-.173 3.606-1.52 6.428-1.502 3.12-3.218 4.9-5.145 5.34-.642.147-1.172.042-1.591-.313-.392-.398-.673-.973-.843-1.722-.285-1.249-.225-2.877.181-4.884.406-2.007 1.053-4.107 1.943-6.3-3.372 4.148-5.455 8.677-6.25 13.589-.292 1.68-.813 2.606-1.563 2.777-.785.18-1.287-.213-1.507-1.176-.187-.821.013-2.744.6-5.768a97.168 97.168 0 0 1 1.577-6.666c1.53-5.305 3.015-11.556 4.452-18.753.664-3.342 1.532-5.136 2.602-5.38.964-.22 1.556.152 1.775 1.116.147.642-.26 2.48-1.22 5.515a954.336 954.336 0 0 1-2.826 9.09c-1.143 3.715-1.815 6.365-2.017 7.95 1.295-2.06 2.59-3.706 3.886-4.94 1.078-1.034 2.01-1.641 2.794-1.82.857-.195 1.366.064 1.529.778.049.214.033.555-.048 1.024-1.028 2.9-1.792 5.064-2.293 6.492-.898 2.645-1.266 4.324-1.103 5.038.114.5.403.696.866.59.75-.17 1.368-.668 1.856-1.493.055-.087.695-1.81 1.919-5.167.439-1.039.908-1.615 1.408-1.729.285-.065.465.063.538.384ZM85.628 23.248c.363.93-.252 1.69-1.845 2.279-2.766 1.043-4.603 1.875-5.513 2.496-1.121 3.972-1.898 7.396-2.331 10.273-.368 2.336-.438 4.004-.21 5.003.178.785.571 1.108 1.178.97.714-.163 1.507-.963 2.38-2.4a16.297 16.297 0 0 0 1.951-4.782c.14-.707.423-1.11.851-1.207.555-.202.913.054 1.076.768.342 1.499-.242 3.547-1.753 6.143-1.482 2.553-3.044 4.017-4.686 4.391-.892.203-1.736.04-2.533-.492-.797-.532-1.326-1.368-1.586-2.51-.39-1.713-.283-4.121.323-7.225a53.091 53.091 0 0 1 1.833-6.781c-.684.456-1.223.73-1.615.819-.821.187-1.33-.148-1.524-1.004-.155-.678.239-1.256 1.181-1.734a435.09 435.09 0 0 1 2.987-1.47c1.126-3.297 2.02-5.547 2.684-6.75.657-1.237 1.342-1.938 2.055-2.1.52-.194.86.066 1.023.78.13.57-.061 1.46-.575 2.665-.756 1.787-1.187 2.86-1.292 3.223.807-.41 1.552-.767 2.233-1.073a10.406 10.406 0 0 1 1.931-.665c1.071-.244 1.663-.117 1.777.383ZM100.966 6.856c.635 2.783-.47 7.24-3.314 13.369-2.566 5.54-5.448 10.27-8.646 14.19-.572 2.759-.761 4.566-.566 5.423.147.642.38.926.702.853.606-.138 1.352-.984 2.237-2.537.912-1.597 1.42-2.99 1.525-4.177.158-.787.47-1.233.934-1.339.25-.057.488.001.715.175.255.13.423.373.504.73.293 1.284-.414 3.285-2.122 6.002-1.708 2.717-3.151 4.21-4.329 4.478-1.32.301-2.18-.423-2.578-2.171-.106-.464-.151-1.073-.135-1.828.404-6.624 1.776-13.45 4.115-20.477 2.187-6.543 4.43-11.034 6.726-13.472.707-.687 1.328-1.091 1.863-1.213.571-.13 1.07 0 1.497.39.419.356.71.89.872 1.604ZM98.6 8.578c-.114-.5-.367-.705-.76-.615-.892.203-2.287 2.811-4.185 7.824-1.906 4.977-3.014 9.171-3.325 12.583 2.138-2.477 4.153-6.071 6.045-10.782 1.825-4.508 2.567-7.511 2.225-9.01ZM106.572 12.785c.195.857-.047 1.85-.728 2.982-.653 1.087-1.301 1.704-1.943 1.85-.749.171-1.226-.19-1.429-1.081-.187-.821.042-1.793.687-2.916.644-1.123 1.288-1.758 1.93-1.904.785-.18 1.28.177 1.483 1.07Zm-3.219 11.32c.122.536.016 1.142-.317 1.819-.703 1.361-1.452 3.84-2.246 7.438-.802 3.561-1.172 5.973-1.11 7.235.063 1.262-.289 1.943-1.054 2.042-.286.066-.58-.074-.884-.418a2.707 2.707 0 0 1-.614-1.211c-.407-1.784-.147-4.434.778-7.948a49.515 49.515 0 0 1 3.026-8.46c.13-.256.295-.519.496-.79.237-.279.516-.455.837-.528.587-.06.95.215 1.088.822ZM118.912 1.807c.122.535-.065 1.197-.561 1.986-1.212 1.928-2.518 4.76-3.919 8.495-1.4 3.736-2.503 7.215-3.307 10.44.83-.64 1.623-1.196 2.379-1.669 1.187-.721 2.262-1.192 3.226-1.411.82-.187 1.561-.15 2.222.113.696.254 1.145.658 1.346 1.213.073.321-.085.695-.476 1.122-.355.419-.729.673-1.121.762-.143.033-.634-.061-1.473-.283a2.6 2.6 0 0 0-1.304-.04c-.678.154-1.71.652-3.094 1.493-1.393.806-2.401 1.655-3.023 2.548 1.382.135 2.543.865 3.483 2.19.777 1.1 1.352 2.47 1.726 4.111 1.603 7.03 1.416 12.797-.56 17.302-1.509 3.423-3.442 5.402-5.797 5.94-.856.195-1.69-.084-2.5-.838-.837-.71-1.407-1.725-1.708-3.046a17.733 17.733 0 0 1-.418-3.565c-.019-1.234.035-2.56.163-3.978.239-2.57.782-6.035 1.628-10.395.347-1.768.522-2.897.523-3.385a2.318 2.318 0 0 1-.523.176c-.571.13-.901-.001-.991-.394-.106-.464.105-1.187.631-2.17.527-.984 1.277-2.056 2.251-3.217.942-3.443 1.657-5.99 2.144-7.64.802-2.736 1.661-5.39 2.576-7.964.942-2.618 1.84-4.774 2.692-6.47.306-.633.68-1.131 1.123-1.495.434-.4.866-.648 1.294-.745.749-.171 1.205.1 1.368.814Zm-6.207 32.048c-.301-1.32-.714-2.39-1.238-3.21-.525-.818-1.169-1.253-1.931-1.305-.555 2.342-1.217 6.19-1.985 11.546-.733 5.347-.989 8.503-.77 9.466.179.786.456 1.342.831 1.67.383.362.753.503 1.11.422 1.463-.334 2.703-2.306 3.719-5.916 1.169-4.095 1.257-8.32.264-12.673Z" fill="#fff"/><path d="M133.597 25.318c.284 1.25-.636 3.223-2.761 5.923-2.27 2.883-4.512 4.576-6.724 5.08-1.107.253-2.182.066-3.225-.56-1.016-.669-1.663-1.61-1.939-2.823-.35-1.535-.269-3.318.244-5.349.427-1.75 1.031-3.22 1.81-4.41 1.086-1.825 2.095-3.162 3.027-4.013.924-.886 1.743-1.411 2.457-1.574.678-.154 1.28-.066 1.805.264.526.33.858.8.997 1.406.26 1.142-.033 2.654-.88 4.537a18.406 18.406 0 0 1-2.361 3.973c-.413.657-1.062 1.35-1.947 2.077-.633.52-1.344 1.02-2.136 1.5.195.857.52 1.458.975 1.805.482.303 1.062.377 1.74.223 1.106-.252 2.34-1.097 3.702-2.534a19.925 19.925 0 0 0 3.457-4.842c.416-.808.767-1.245 1.053-1.31.356-.081.592.128.706.627Zm-6.644-3.947c-.098-.428-.369-.63-.813-.603-.571.13-1.16.677-1.766 1.642-.476.709-.989 1.67-1.538 2.884-.522 1.17-.893 2.175-1.115 3.014 1.178-.269 2.397-1.26 3.658-2.974 1.261-1.714 1.786-3.035 1.574-3.963Z" fill="#fff"/></svg>