<svg width="480" height="123" fill="none" xmlns="http://www.w3.org/2000/svg"><g opacity=".5" fill="#372B43"><path d="M6.487 82.603H0v38.919h7.514V96.117l17.838 25.405h6.486V82.603h-7.46v25.406L6.488 82.603ZM57.193 122.333c5.406 0 10.757-2.054 14.325-6.378 3.189-3.892 4.432-8.487 4.54-13.892-.108-5.19-1.243-9.946-4.54-13.946-3.46-4.217-8.703-6.325-14.325-6.325s-10.919 2.054-14.324 6.325c-3.136 3.784-4.54 8.757-4.54 13.946s1.404 10.108 4.54 13.892c3.351 4.216 8.757 6.378 14.324 6.378Zm0-6.919c-3.351.054-6.594-1.297-8.486-3.892-2-2.594-2.595-6.054-2.65-9.459.055-3.406.65-6.92 2.65-9.46 1.892-2.594 5.135-3.946 8.486-3.892 3.352-.054 6.54 1.298 8.487 3.892 1.946 2.54 2.594 6.054 2.594 9.46 0 3.405-.648 6.865-2.594 9.459-1.946 2.595-5.136 3.946-8.487 3.892ZM109.596 82.603H77.704v7.352h12.27v31.567h7.351V89.955h12.271v-7.352ZM136.549 121.522h7.567l-11.892-38.919h-10.973l-11.892 38.919h7.568l1.838-6.054h15.892l1.892 6.054Zm-15.676-12.973 5.784-19.027 5.892 19.027h-11.676ZM174.897 102.549a18.086 18.086 0 0 0-1.946-2.108c.054-.054.162-.162.216-.27 1.46-1.838 2.325-4.216 2.271-6.487-.055-2.378-.811-4.756-2.271-6.594-1.297-1.892-3.297-3.298-5.567-3.946-1.082-.379-2.217-.54-3.352-.54h-15.513v38.918h16.432c1.243 0 2.487-.27 3.676-.594 2.378-.757 4.54-2.216 6.054-4.216 1.513-2.109 2.324-4.595 2.324-7.082 0-2.594-.811-5.081-2.324-7.081Zm-10.703-13.08c.865 0 2.162.702 2.703 1.405.703.756 1.027 1.783 1.081 2.81.054.92-.324 1.838-.919 2.54-.595.758-1.676 1.352-2.432 1.514h-8.433v-8.27h8Zm5.622 20.161c-.054 1.406-.541 2.757-1.622 3.676-.865.757-1.946 1.297-3.135 1.297h-8.865v-9.946h8.865c1.243 0 2.27.271 3.351 1.352.919.973 1.46 2.324 1.406 3.621Z"/></g><g opacity=".5" fill="#372B43"><path d="M271.632.81h-6.487v38.92h7.514V14.325l17.838 25.405h6.487V.81h-7.46v25.407L271.632.81ZM322.339 40.54c5.405 0 10.756-2.053 14.324-6.377 3.189-3.892 4.432-8.487 4.541-13.892-.109-5.19-1.244-9.947-4.541-13.947C333.203 2.108 327.96 0 322.339 0c-5.622 0-10.92 2.054-14.325 6.324-3.135 3.784-4.541 8.757-4.541 13.946 0 5.19 1.406 10.109 4.541 13.893 3.351 4.216 8.757 6.378 14.325 6.378Zm0-6.918c-3.352.054-6.595-1.297-8.487-3.892-2-2.595-2.595-6.054-2.649-9.46.054-3.405.649-6.918 2.649-9.46 1.892-2.594 5.135-3.945 8.487-3.891 3.351-.054 6.54 1.297 8.486 3.892 1.946 2.54 2.595 6.054 2.595 9.46 0 3.405-.649 6.864-2.595 9.459-1.946 2.595-5.135 3.946-8.486 3.892ZM374.741.81h-31.892v7.352h12.27V39.73h7.352V8.162h12.27V.811ZM401.694 39.73h7.568L397.37.81h-10.973l-11.892 38.92h7.567l1.838-6.054h15.892l1.892 6.054Zm-15.676-12.973 5.784-19.027 5.892 19.027h-11.676ZM440.042 20.757a17.914 17.914 0 0 0-1.946-2.108c.054-.054.163-.162.217-.27 1.459-1.838 2.324-4.217 2.27-6.487-.054-2.378-.811-4.757-2.27-6.595-1.298-1.892-3.298-3.297-5.568-3.946-1.081-.378-2.216-.54-3.351-.54H413.88v38.92h16.433c1.243 0 2.486-.271 3.675-.596 2.379-.756 4.541-2.216 6.054-4.216 1.514-2.108 2.325-4.594 2.325-7.08 0-2.595-.811-5.082-2.325-7.082ZM429.34 7.676c.864 0 2.162.702 2.702 1.405.703.757 1.027 1.784 1.081 2.811.054.919-.324 1.838-.919 2.54-.594.757-1.675 1.352-2.432 1.514h-8.433v-8.27h8.001Zm5.621 20.162c-.054 1.405-.54 2.757-1.621 3.676-.865.757-1.946 1.297-3.136 1.297h-8.865v-9.946h8.865c1.244 0 2.271.27 3.352 1.352.919.972 1.459 2.324 1.405 3.621Z"/></g><g opacity=".5" fill="#372B43"><path d="M308.451 71.73h-6.487v38.92h7.514V85.244l17.838 25.406h6.486V71.73h-7.459v25.406L308.451 71.73ZM359.157 111.46c5.406 0 10.757-2.054 14.325-6.378 3.189-3.892 4.432-8.486 4.54-13.892-.108-5.19-1.243-9.946-4.54-13.946-3.46-4.216-8.703-6.324-14.325-6.324-5.621 0-10.919 2.054-14.324 6.324-3.135 3.784-4.541 8.757-4.541 13.946 0 5.19 1.406 10.108 4.541 13.892 3.351 4.216 8.757 6.378 14.324 6.378Zm0-6.918c-3.351.054-6.594-1.298-8.486-3.892-2-2.595-2.595-6.055-2.649-9.46.054-3.405.649-6.919 2.649-9.46 1.892-2.594 5.135-3.946 8.486-3.892 3.352-.053 6.541 1.298 8.487 3.893 1.946 2.54 2.595 6.054 2.595 9.459 0 3.406-.649 6.865-2.595 9.46-1.946 2.594-5.135 3.946-8.487 3.892ZM411.56 71.73h-31.892v7.352h12.27v31.568h7.351V79.082h12.271V71.73ZM438.513 110.65h7.567l-11.892-38.92h-10.973l-11.892 38.92h7.568l1.838-6.054h15.892l1.892 6.054Zm-15.676-12.973 5.784-19.028 5.892 19.028h-11.676ZM476.861 91.677a17.913 17.913 0 0 0-1.946-2.109c.054-.054.162-.162.216-.27 1.46-1.838 2.325-4.216 2.271-6.486-.054-2.379-.811-4.757-2.271-6.595-1.297-1.892-3.297-3.297-5.567-3.946-1.081-.379-2.216-.54-3.352-.54h-15.513v38.919h16.432c1.244 0 2.487-.271 3.676-.595 2.378-.757 4.541-2.216 6.054-4.216 1.514-2.108 2.325-4.595 2.325-7.081 0-2.595-.811-5.081-2.325-7.081Zm-10.703-13.082c.865 0 2.163.703 2.703 1.406.703.756 1.027 1.783 1.081 2.81.054.92-.324 1.838-.919 2.541-.594.757-1.675 1.352-2.432 1.514h-8.433v-8.27h8Zm5.622 20.163c-.054 1.405-.54 2.756-1.622 3.675-.864.757-1.946 1.298-3.135 1.298h-8.865v-9.946h8.865c1.244 0 2.271.27 3.352 1.351.919.973 1.459 2.324 1.405 3.622Z"/></g><g opacity=".5" fill="#372B43"><path d="M51.46.81h-6.487v38.92h7.514V14.325L70.325 39.73h6.487V.81h-7.46v25.407L51.46.81ZM102.167 40.54c5.405 0 10.756-2.053 14.324-6.377 3.189-3.892 4.433-8.487 4.541-13.892-.108-5.19-1.244-9.947-4.541-13.947C113.032 2.108 107.788 0 102.167 0c-5.622 0-10.92 2.054-14.325 6.324-3.135 3.784-4.54 8.757-4.54 13.946 0 5.19 1.405 10.109 4.54 13.893 3.352 4.216 8.757 6.378 14.325 6.378Zm0-6.918c-3.352.054-6.595-1.297-8.487-3.892-2-2.595-2.595-6.054-2.649-9.46.054-3.405.649-6.918 2.649-9.46 1.892-2.594 5.135-3.945 8.487-3.891 3.351-.054 6.54 1.297 8.486 3.892 1.946 2.54 2.595 6.054 2.595 9.46 0 3.405-.649 6.864-2.595 9.459-1.946 2.595-5.135 3.946-8.486 3.892ZM154.569.81h-31.892v7.352h12.27V39.73h7.352V8.162h12.27V.811ZM181.522 39.73h7.568L177.198.81h-10.973l-11.892 38.92h7.567l1.838-6.054h15.892l1.892 6.054Zm-15.676-12.973L171.63 7.73l5.892 19.027h-11.676ZM219.87 20.757a17.914 17.914 0 0 0-1.946-2.108c.055-.054.163-.162.217-.27 1.459-1.838 2.324-4.217 2.27-6.487-.054-2.378-.811-4.757-2.27-6.595-1.298-1.892-3.298-3.297-5.568-3.946-1.081-.378-2.216-.54-3.351-.54h-15.514v38.92h16.433c1.243 0 2.486-.271 3.675-.596 2.379-.756 4.541-2.216 6.054-4.216 1.514-2.108 2.325-4.594 2.325-7.08 0-2.595-.811-5.082-2.325-7.082ZM209.168 7.676c.864 0 2.162.702 2.702 1.405.703.757 1.027 1.784 1.081 2.811.054.919-.324 1.838-.919 2.54-.594.757-1.675 1.352-2.432 1.514h-8.432v-8.27h8Zm5.621 20.162c-.054 1.405-.54 2.757-1.621 3.676-.865.757-1.946 1.297-3.136 1.297h-8.864v-9.946h8.864c1.244 0 2.271.27 3.352 1.352.919.972 1.459 2.324 1.405 3.621Z"/></g></svg>