<svg width="193" height="116" fill="none" xmlns="http://www.w3.org/2000/svg"><rect y=".81" width="192.224" height="114.361" rx="14.795" fill="#000"/><rect x=".308" y="1.118" width="191.607" height="113.745" rx="14.487" stroke="#fff" stroke-opacity=".5" stroke-width=".616"/><path d="M31.88 28.284h-.397v55.372h.398V28.284Z" fill="#fff"/><path d="M165.699 83.461H31.564v.398H165.7v-.398ZM165.699 72.382H31.564v.397H165.7v-.397ZM165.699 61.311H31.564v.398H165.7v-.398ZM165.699 50.24H31.564v.397H165.7v-.397ZM165.699 39.16H31.564v.398H165.7v-.397ZM165.699 28.09H31.564v.397H165.7v-.398Z" fill="#fff"/><path d="M48.637 28.284h-.397v55.372h.397V28.284ZM65.394 28.284h-.397v55.372h.397V28.284ZM82.15 28.284h-.397v55.372h.398V28.284ZM98.907 28.284h-.397v55.372h.397V28.284ZM115.664 28.284h-.397v55.372h.397V28.284ZM132.421 28.284h-.398v55.372h.398V28.284ZM149.178 28.284h-.398v55.372h.398V28.284ZM165.934 28.284h-.397v55.372h.397V28.284Z" fill="#fff"/><path d="m32.132 61.019 16.87-11.988 16.084 11.785h17.267l16.879-22.961 16.075 11.176 17.276-11.38h33.149v45.997H31.702l.43-22.63Z" fill="url('#paint0_linear_479_2826')"/><path d="M165.732 83.647v-34.68h-15.881l-16.935 11.646-17.211-23.034-16.676 12.198H82.354L65.15 72.811 49.002 60.613 31.783 72.536l-.08 11.111h134.029Z" fill="url('#paint1_linear_479_2826')"/><path d="M36.34 86.53h.311v1.66c0 .225-.068.4-.203.527-.134.126-.313.19-.537.19-.233 0-.415-.06-.544-.179-.13-.12-.195-.286-.195-.5h.309c0 .134.036.238.11.313.073.075.18.113.32.113.127 0 .23-.04.309-.12.08-.081.12-.194.12-.339v-1.664Zm2.096 1.733h-.982l-.22.611h-.319l.895-2.343h.27l.897 2.343h-.317l-.224-.611Zm-.888-.255h.797l-.4-1.096-.397 1.096Zm3.546.867h-.31l-1.18-1.807v1.806h-.311v-2.343h.31l1.184 1.814V86.53h.307v2.343ZM53.754 87.84h-.984v1.034h-.309v-2.343h1.452v.254H52.77v.802h.984v.252Zm1.854-.049h-1.016v.83h1.18v.254h-1.489V86.53h1.473v.254h-1.164v.753h1.016v.253Zm.55 1.084V86.53h.765c.255 0 .446.052.573.157.13.106.194.261.194.467a.48.48 0 0 1-.094.292.607.607 0 0 1-.254.194.538.538 0 0 1 .3.203.573.573 0 0 1 .11.354c0 .21-.068.376-.204.496-.136.12-.329.18-.578.18h-.813Zm.308-1.097v.844h.51a.49.49 0 0 0 .34-.111.394.394 0 0 0 .126-.31c0-.282-.154-.423-.46-.423h-.516Zm0-.248h.467a.487.487 0 0 0 .324-.101.339.339 0 0 0 .122-.275c0-.13-.038-.222-.113-.28-.075-.06-.19-.089-.343-.089h-.457v.745ZM70.787 86.53l.766 1.913.766-1.912h.4v2.343h-.308v-.912l.029-.985-.77 1.897h-.236l-.768-1.893.03.98v.913h-.309v-2.343h.4Zm3.802 1.733h-.982l-.22.611h-.32l.896-2.343h.27l.897 2.343h-.317l-.224-.611Zm-.889-.255h.797l-.4-1.096-.397 1.096Zm2.605-.082h-.55v.948h-.311v-2.343h.775c.265 0 .467.06.609.18.143.12.214.295.214.525 0 .146-.04.273-.119.381a.7.7 0 0 1-.328.243l.55.995v.02h-.331l-.51-.949Zm-.55-.252h.474c.154 0 .275-.04.366-.12a.402.402 0 0 0 .136-.318c0-.145-.043-.256-.13-.334-.086-.077-.21-.116-.373-.117h-.474v.889ZM88.784 88.263h-.982l-.22.611h-.319l.895-2.343h.27l.897 2.343h-.317l-.224-.611Zm-.888-.255h.797l-.4-1.096-.397 1.096Zm2.054-.051v.918h-.31V86.53h.865c.257 0 .457.065.602.196.146.131.22.304.22.52 0 .228-.072.403-.215.526-.142.123-.345.184-.61.184h-.552Zm0-.253h.555c.166 0 .292-.038.38-.116.088-.078.132-.19.132-.338a.44.44 0 0 0-.132-.335.52.52 0 0 0-.362-.13h-.573v.92Zm2.63.222h-.55v.948h-.311v-2.343h.776c.264 0 .467.06.608.18.143.12.215.295.215.525 0 .146-.04.273-.12.381a.7.7 0 0 1-.328.243l.55.995v.02h-.331l-.509-.949Zm-.55-.252h.475c.153 0 .275-.04.365-.12a.402.402 0 0 0 .137-.318c0-.145-.044-.256-.13-.334-.086-.077-.21-.116-.374-.117h-.473v.889ZM106.64 86.53l.766 1.913.767-1.912h.4v2.343h-.309v-.912l.029-.985-.769 1.897h-.237l-.768-1.893.031.98v.913h-.309v-2.343h.399Zm3.802 1.733h-.982l-.22.611h-.319l.895-2.343h.271l.896 2.343h-.317l-.224-.611Zm-.888-.255h.797l-.4-1.096-.397 1.096Zm2.308-.3.612-1.177h.351l-.808 1.47v.873h-.309V88l-.808-1.47h.354l.608 1.177ZM124.325 86.53h.311v1.66c0 .225-.068.4-.203.527-.134.126-.313.19-.538.19-.232 0-.414-.06-.544-.179-.129-.12-.194-.286-.194-.5h.309c0 .134.036.238.109.313.074.075.181.113.32.113.128 0 .231-.04.31-.12a.467.467 0 0 0 .12-.339v-1.664Zm2.487 0v1.594a.743.743 0 0 1-.209.543c-.137.14-.324.22-.56.236l-.082.004c-.257 0-.461-.07-.613-.208-.153-.138-.23-.329-.232-.571V86.53h.306v1.587c0 .17.046.302.14.396.093.093.226.14.399.14.175 0 .308-.047.401-.14.093-.093.14-.225.14-.394v-1.59h.31Zm2.29 2.344h-.311l-1.18-1.806v1.806h-.311v-2.343h.311l1.183 1.814V86.53h.308v2.343ZM142.252 86.53h.311v1.66c0 .225-.068.4-.203.527-.134.126-.313.19-.538.19-.233 0-.414-.06-.544-.179-.13-.12-.195-.286-.195-.5h.309c0 .134.037.238.11.313.074.075.181.113.32.113a.41.41 0 0 0 .309-.12c.08-.081.12-.194.121-.339v-1.664Zm2.487 0v1.594a.747.747 0 0 1-.209.543c-.137.14-.324.22-.56.236l-.082.004c-.257 0-.461-.07-.614-.208-.152-.138-.229-.329-.232-.571V86.53h.306v1.587c0 .17.047.302.14.396.094.093.227.14.4.14.175 0 .308-.047.4-.14.094-.093.141-.225.141-.394v-1.59h.31Zm.799 2.092h1.11v.252h-1.421v-2.343h.311v2.09ZM159.667 88.263h-.982l-.221.611h-.318l.895-2.343h.27l.897 2.343h-.317l-.224-.611Zm-.889-.255h.797l-.399-1.096-.398 1.096Zm3.366-1.477v1.593a.743.743 0 0 1-.209.543c-.137.14-.324.22-.56.236l-.082.004c-.257 0-.461-.07-.614-.208-.152-.138-.229-.329-.231-.571V86.53h.306v1.587c0 .17.046.302.14.396.093.093.226.14.399.14.175 0 .308-.047.401-.14.093-.093.14-.225.14-.394v-1.59h.31Zm2.219 2.036a.722.722 0 0 1-.334.256 1.344 1.344 0 0 1-.495.084.968.968 0 0 1-.509-.134.911.911 0 0 1-.345-.383 1.348 1.348 0 0 1-.124-.575v-.204c0-.353.083-.627.247-.821.165-.194.397-.291.695-.291.245 0 .442.062.591.188.149.124.24.301.274.531h-.309c-.058-.31-.243-.465-.554-.465-.207 0-.365.073-.472.219-.106.145-.16.355-.161.63v.192c0 .263.06.472.18.628a.587.587 0 0 0 .488.232c.116 0 .218-.013.304-.039a.47.47 0 0 0 .216-.13v-.526h-.542v-.252h.85v.86ZM27.619 82.995c0 .349-.06.608-.179.777-.119.17-.305.255-.558.255-.25 0-.436-.083-.556-.248-.12-.166-.182-.414-.186-.744v-.397c0-.345.059-.6.178-.768.12-.168.306-.251.56-.251.253 0 .438.08.557.243.12.16.18.41.184.747v.386Zm-.298-.407c0-.252-.035-.436-.106-.55-.071-.117-.183-.175-.337-.175-.152 0-.263.058-.333.172-.07.115-.106.292-.108.53v.477c0 .253.037.44.11.561.074.12.185.18.335.18a.358.358 0 0 0 .326-.17c.072-.114.11-.293.113-.538v-.487ZM27.128 73.833h-.3v-1.985l-.6.22v-.27l.853-.32h.047v2.355Zm2.342-1c0 .35-.06.609-.179.778-.119.17-.305.254-.558.254-.25 0-.435-.082-.556-.247-.12-.167-.182-.415-.186-.744v-.398c0-.344.06-.6.178-.768.12-.167.306-.25.56-.25.253 0 .439.08.558.242.119.161.18.41.183.747v.387Zm-.298-.407c0-.252-.035-.435-.106-.55-.07-.116-.183-.174-.336-.174-.153 0-.264.057-.334.172-.07.115-.105.291-.108.53v.476c0 .254.037.44.11.562.074.12.186.18.335.18a.358.358 0 0 0 .327-.17c.072-.114.11-.293.112-.538v-.488ZM27.128 62.315h-.3V60.33l-.6.22v-.27l.853-.32h.047v2.355Zm1.851 0h-.3V60.33l-.6.22v-.27l.853-.32h.047v2.355ZM27.128 51.557h-.3v-1.985l-.6.22v-.27l.853-.32h.047v2.355Zm2.408 0H28v-.215l.812-.9c.12-.137.203-.248.248-.333a.554.554 0 0 0 .069-.265.42.42 0 0 0-.111-.301.389.389 0 0 0-.296-.118.46.46 0 0 0-.347.128.481.481 0 0 0-.122.35h-.298c0-.215.07-.39.208-.523.14-.133.326-.2.559-.2.217 0 .39.058.516.173.127.114.19.265.19.455 0 .231-.147.506-.44.825l-.629.68h1.177v.244ZM27.128 41.017h-.3v-1.985l-.6.22v-.27l.853-.32h.047v2.355Zm1.305-1.317h.224a.492.492 0 0 0 .332-.11.371.371 0 0 0 .12-.292c0-.275-.136-.412-.41-.412a.428.428 0 0 0-.309.11.385.385 0 0 0-.114.292h-.298c0-.185.067-.34.203-.462a.743.743 0 0 1 .518-.185c.221 0 .394.059.52.175.126.117.188.28.188.488 0 .102-.033.201-.1.296a.592.592 0 0 1-.268.215c.128.04.228.108.297.202a.56.56 0 0 1 .107.346.64.64 0 0 1-.206.501.772.772 0 0 1-.536.185c-.22 0-.4-.06-.538-.178a.594.594 0 0 1-.206-.472h.3c0 .123.04.222.12.296.08.074.188.111.324.111.143 0 .253-.037.33-.112.076-.076.114-.184.114-.324 0-.136-.042-.241-.126-.314-.083-.073-.204-.11-.362-.113h-.224V39.7ZM27.128 29.764h-.3v-1.985l-.6.22v-.27l.853-.32h.047v2.355Zm2.13-.787h.325v.243h-.325v.544h-.3v-.544h-1.067v-.176l1.05-1.624h.317v1.556Zm-1.029 0h.73v-1.15l-.036.064-.694 1.086Z" fill="#F5F7F6"/><defs><linearGradient id="paint0_linear_479_2826" x1="98.718" y1="81.602" x2="98.718" y2="19.561" gradientUnits="userSpaceOnUse"><stop stop-color="#27B7FF"/><stop offset=".896" stop-color="#F408AB"/></linearGradient><linearGradient id="paint1_linear_479_2826" x1="98.718" y1="106.206" x2="98.718" y2="41.094" gradientUnits="userSpaceOnUse"><stop offset="0" stop-color="#0055CB"/><stop offset=".359" stop-color="#0077CE"/><stop offset=".648" stop-color="#06F"/><stop offset=".871" stop-color="#06F"/><stop offset="1" stop-color="#06F"/></linearGradient></defs></svg>