<svg width="96" height="25" fill="none" xmlns="http://www.w3.org/2000/svg"><path d="M13.518 0v13.172L4.16 0H0v24.264h5.546V11.092l9.359 13.172h4.16V0h-5.547ZM30.531 24.75c5.096 0 9.186-3.987 9.186-9.152 0-5.165-4.09-9.15-9.186-9.15-5.095 0-9.185 3.986-9.185 9.15 0 5.165 4.09 9.151 9.185 9.151Zm0-5.061c-2.253 0-3.986-1.63-3.986-4.09 0-2.462 1.733-4.09 3.986-4.09s3.986 1.628 3.986 4.09c0 2.46-1.733 4.09-3.986 4.09ZM58.287 0H40.262v5.338h6.24v18.926h5.545V5.338h6.24V0Z" fill="#fff"/><path d="M69.173 6.933v1.629c-1.144-1.317-2.842-2.115-5.164-2.115-4.541 0-8.285 3.987-8.285 9.151 0 5.165 3.744 9.151 8.285 9.151 2.322 0 4.02-.797 5.164-2.114v1.629h5.2V6.933h-5.2ZM65.05 19.827c-2.392 0-4.125-1.629-4.125-4.229s1.733-4.229 4.125-4.229c2.391 0 4.124 1.63 4.124 4.23 0 2.599-1.733 4.228-4.124 4.228ZM87.716 6.447c-2.323 0-4.021.798-5.165 2.115V0h-5.2v24.264h5.2v-1.63c1.144 1.318 2.842 2.115 5.165 2.115 4.54 0 8.284-3.986 8.284-9.15 0-5.165-3.744-9.152-8.284-9.152Zm-1.04 13.38c-2.392 0-4.125-1.629-4.125-4.229s1.733-4.229 4.125-4.229c2.391 0 4.125 1.63 4.125 4.23 0 2.599-1.734 4.228-4.125 4.228Z" fill="#fff"/></svg>